<?xml version="1.0" encoding="utf-8"?>
<!-- Generator: Adobe Illustrator 26.3.1, SVG Export Plug-In . SVG Version: 6.00 Build 0)  -->
<svg version="1.1" id="Layer_1" xmlns="http://www.w3.org/2000/svg" xmlns:xlink="http://www.w3.org/1999/xlink" x="0px" y="0px"
	 viewBox="0 0 28 28" style="enable-background:new 0 0 28 28;" xml:space="preserve">
<style type="text/css">
	.st0{display:none;}
	.st1{display:inline;}
	.st2{fill-rule:evenodd;clip-rule:evenodd;}
	.st3{fill:#FFFFFF;}
	.st4{fill:#0923E3;}
</style>
<g id="Layer_1_00000166639197734805600620000011097999359307867287_" class="st0">
	<g class="st1">
		<path class="st2" d="M0.2-27.2h42v46c0,11.6-9.4,21-21,21s-21-9.4-21-21V-27.2z"/>
		<path class="st3" d="M27.2,21.1l-0.8,0.3V9.5H29v14.2h-2.6L15.7,12.2l0.8-0.3v11.8H14V9.5h2.5L27.2,21.1z"/>
		<g>
			<path d="M63.2,21.1l-0.8,0.3V9.5H65v14.2h-2.6L51.7,12.2l0.8-0.3v11.8H50V9.5h2.5L63.2,21.1z M80.2,17.7V9.5h2.5v8.4
				c0,0.9-0.1,1.7-0.4,2.4s-0.6,1.2-1,1.7s-1,0.9-1.6,1.2s-1.3,0.5-2,0.7s-1.5,0.2-2.3,0.2s-1.6-0.1-2.3-0.2s-1.4-0.3-2-0.7
				S70,22.5,69.5,22s-0.8-1-1-1.7s-0.4-1.5-0.4-2.4V9.5h2.5v8.2c0,1.1,0.2,2,0.6,2.5s1,1,1.7,1.2s1.5,0.3,2.4,0.3s1.7-0.1,2.4-0.3
				s1.3-0.6,1.7-1.2S80.2,18.9,80.2,17.7z M96,22.4h-1.2l7.6-12.9h2.5v14.3h-2.5V13.1l0.6,0.2l-6.2,10.5H94l-6.2-10.5l0.6-0.2v10.6
				h-2.5V9.5h2.5L96,22.4z M110.7,17.7v3.9h10.1v2.2h-12.6V9.5h12.6v2.2h-10.1v3.9h8.3v2.1C119,17.7,110.7,17.7,110.7,17.7z
				 M113.2,7.7l2.8-3.5h3.3l-3.7,3.5H113.2z M123.6,23.8V9.5h8.5c1.1,0,2,0.2,2.8,0.5s1.4,0.8,1.8,1.4s0.6,1.4,0.6,2.4
				c0,0.7-0.1,1.2-0.3,1.7s-0.5,0.8-0.9,1.1s-0.9,0.5-1.4,0.7s-1.1,0.2-1.7,0.3l-0.2-0.2c0.9,0,1.7,0.1,2.4,0.3s1.1,0.4,1.4,0.8
				s0.5,1,0.5,1.8v3.4h-2.6v-3.3c0-0.6-0.1-1-0.3-1.3s-0.5-0.5-1-0.7s-1.2-0.2-2.1-0.2H126v5.5h-2.4V23.8z M126.1,16.2h6
				c0.9,0,1.6-0.2,2-0.7s0.7-1,0.7-1.7s-0.2-1.2-0.7-1.6s-1.1-0.5-2-0.5h-6L126.1,16.2z M140.6,9.5h2.6v14.3h-2.6V9.5z M153.2,22.8
				h2.5v5.3h-2.5V22.8z M154.4,24c-1.7,0-3.2-0.3-4.4-0.9s-2.2-1.5-2.9-2.5s-1-2.4-1-3.9s0.3-2.8,1-4s1.6-2,2.9-2.5s2.7-0.9,4.4-0.9
				s3.2,0.3,4.4,0.9s2.2,1.4,2.9,2.5s1,2.4,1,4s-0.4,2.8-1,3.9s-1.6,2-2.9,2.5S156.1,24,154.4,24z M154.4,21.8c1.1,0,2.1-0.2,3-0.6
				s1.5-0.9,2-1.7s0.7-1.7,0.7-2.9c0-1.1-0.2-2.1-0.7-2.9c-0.5-0.8-1.2-1.3-2-1.7s-1.9-0.6-3-0.6s-2.1,0.2-3,0.6s-1.6,1-2.1,1.7
				c-0.5,0.7-0.8,1.7-0.8,2.9c0,1.2,0.2,2.1,0.8,2.9c0.5,0.8,1.2,1.3,2.1,1.7S153.3,21.8,154.4,21.8z M177.4,17.7V9.5h2.5v8.4
				c0,0.9-0.1,1.7-0.4,2.4s-0.6,1.2-1,1.7s-1,0.9-1.6,1.2s-1.3,0.5-2,0.7s-1.5,0.2-2.3,0.2s-1.6-0.1-2.3-0.2s-1.4-0.3-2-0.7
				s-1.1-0.7-1.6-1.2s-0.8-1-1-1.7s-0.4-1.5-0.4-2.4V9.5h2.5v8.2c0,1.1,0.2,2,0.6,2.5s1,1,1.7,1.2s1.5,0.3,2.4,0.3s1.7-0.1,2.4-0.3
				s1.3-0.6,1.7-1.2S177.4,18.9,177.4,17.7z M185.7,17.7v3.9h10.1v2.2h-12.6V9.5h12.6v2.2h-10.1v3.9h8.3v2.1
				C194,17.7,185.7,17.7,185.7,17.7z"/>
		</g>
	</g>
</g>
<g>
	<path class="st4" d="M4.2,22.3c0,3.4,1.4,4.2,5,4.1c0.2,0,0.4,0,0.7,0c0-0.2,0-0.4,0-0.6c0-5.2,0-10.4,0-15.7
		c0-3.3-1.8-5.9-4.5-6.6C5,3.4,4.6,3.4,4.2,3.3c0,0.3,0,0.5,0,0.6C4.2,9.2,4.2,17,4.2,22.3z M8.4,15c0.5,0,0.8,0.4,0.8,0.9
		s-0.4,0.8-0.8,0.8s-0.8-0.4-0.8-0.8C7.6,15.3,8,15,8.4,15z"/>
	<path class="st4" d="M13.6,11.9c-0.9,0.4-2.8,0.4-2.8,0.4c0-0.7-0.1-1.5-0.1-2.5c-0.1-0.8-0.2-2.4-1-4c-1-1.6-2.2-2.4-2.8-2.7h4.8
		C16.5,3.3,17.9,9.9,13.6,11.9z"/>
	<path class="st4" d="M24.4,6.8c0-3.3-5.7-3.3-5.8-3.3c0,0,0.2,10.9,0.2,16.1c0,3.3,1.8,5.9,4.5,6.6c0.4,0.1,0.8,0.1,1.2,0.2
		c0-0.3,0-0.5,0-0.6C24.5,20.5,24.4,12,24.4,6.8z"/>
	<path class="st4" d="M14.7,17.6c0.9-0.4,3.2-0.4,3.2-0.4s0,1.2,0,2.1c0,1.2,0.1,2.8,1,4.5c0.3,0.6,1.1,1.7,2.6,2.7h-4.8
		C11.8,26.1,10.3,19.6,14.7,17.6z"/>
</g>
</svg>
